<svg width="139" height="157" fill="none" xmlns="http://www.w3.org/2000/svg"><g filter="url(#filter0_d)"><path d="M57.352 46.6V69h-4.16V50.088h-4.736V46.6h8.896zm12.988 0V69h-4.16V50.088h-4.737V46.6h8.897zm21.467 18.88V69H75.295v-2.784l8.896-8.448c1.003-.96 1.675-1.792 2.016-2.496.363-.725.544-1.44.544-2.144 0-1.045-.352-1.845-1.056-2.4-.704-.555-1.739-.832-3.104-.832-2.283 0-4.032.779-5.248 2.336l-2.912-2.24c.875-1.173 2.048-2.08 3.52-2.72 1.493-.661 3.157-.992 4.992-.992 2.432 0 4.373.576 5.824 1.728 1.45 1.152 2.176 2.72 2.176 4.704a7.81 7.81 0 01-.768 3.424c-.512 1.067-1.493 2.283-2.944 3.648l-5.984 5.696h10.56z" fill="#000"/></g><g filter="url(#filter1_d)"><path d="M51.722 92.288c-1.328 0-2.616-.176-3.864-.528-1.232-.368-2.224-.84-2.976-1.416l1.32-2.928c.72.528 1.576.952 2.568 1.272.992.32 1.984.48 2.976.48 1.104 0 1.92-.16 2.448-.48.528-.336.792-.776.792-1.32 0-.4-.16-.728-.48-.984-.304-.272-.704-.488-1.2-.648-.48-.16-1.136-.336-1.968-.528-1.28-.304-2.328-.608-3.144-.912a5.199 5.199 0 01-2.112-1.464c-.576-.672-.864-1.568-.864-2.688 0-.976.264-1.856.792-2.64.528-.8 1.32-1.432 2.376-1.896 1.072-.464 2.376-.696 3.912-.696 1.072 0 2.12.128 3.144.384s1.92.624 2.688 1.104l-1.2 2.952c-1.552-.88-3.104-1.32-4.656-1.32-1.088 0-1.896.176-2.424.528-.512.352-.768.816-.768 1.392s.296 1.008.888 1.296c.608.272 1.528.544 2.76.816 1.28.304 2.328.608 3.144.912a5.113 5.113 0 012.088 1.44c.592.656.888 1.544.888 2.664 0 .96-.272 1.84-.816 2.64-.528.784-1.328 1.408-2.4 1.872-1.072.464-2.376.696-3.912.696zm18.281 0c-1.744 0-3.32-.376-4.728-1.128-1.392-.752-2.488-1.784-3.288-3.096-.784-1.328-1.176-2.816-1.176-4.464 0-1.648.392-3.128 1.176-4.44a8.452 8.452 0 013.288-3.12c1.408-.752 2.984-1.128 4.728-1.128 1.744 0 3.312.376 4.704 1.128a8.452 8.452 0 013.288 3.12c.8 1.312 1.2 2.792 1.2 4.44 0 1.648-.4 3.136-1.2 4.464-.8 1.312-1.896 2.344-3.288 3.096-1.392.752-2.96 1.128-4.704 1.128zm0-3.312c.992 0 1.888-.224 2.688-.672a4.909 4.909 0 001.872-1.92c.464-.816.696-1.744.696-2.784 0-1.04-.232-1.968-.696-2.784a4.744 4.744 0 00-1.872-1.896c-.8-.464-1.696-.696-2.688-.696-.992 0-1.888.232-2.688.696a4.907 4.907 0 00-1.896 1.896c-.448.816-.672 1.744-.672 2.784 0 1.04.224 1.968.672 2.784a5.08 5.08 0 001.896 1.92c.8.448 1.696.672 2.688.672zm17.994 3.312c-1.328 0-2.616-.176-3.864-.528-1.232-.368-2.224-.84-2.976-1.416l1.32-2.928c.72.528 1.576.952 2.568 1.272.992.32 1.984.48 2.976.48 1.104 0 1.92-.16 2.448-.48.528-.336.792-.776.792-1.32 0-.4-.16-.728-.48-.984-.304-.272-.704-.488-1.2-.648-.48-.16-1.136-.336-1.968-.528-1.28-.304-2.328-.608-3.144-.912a5.199 5.199 0 01-2.112-1.464c-.576-.672-.864-1.568-.864-2.688 0-.976.264-1.856.792-2.64.528-.8 1.32-1.432 2.376-1.896 1.072-.464 2.376-.696 3.912-.696 1.072 0 2.12.128 3.144.384s1.92.624 2.688 1.104l-1.2 2.952c-1.552-.88-3.104-1.32-4.656-1.32-1.088 0-1.896.176-2.424.528-.512.352-.768.816-.768 1.392s.296 1.008.888 1.296c.608.272 1.528.544 2.76.816 1.28.304 2.328.608 3.144.912a5.113 5.113 0 012.088 1.44c.592.656.888 1.544.888 2.664 0 .96-.272 1.84-.816 2.64-.528.784-1.328 1.408-2.4 1.872-1.072.464-2.376.696-3.912.696z" fill="#fff"/></g><g filter="url(#filter2_d)"><path d="M59.135 39.464l.017.737c-.038 1.906-.65 2.194-2.484 2.196l-9.836.064c-2.931.02-3.903.453-3.972-2.244l-.017-.737 16.292-.016zm-.142-1.762l-15.825.015c.435-2.95 2.043-10.45 6.864-12.36 4.317-1.695 5.108-1.192 8.993-1.807 7.121-.475 15.375-.357 21.705-.148 3.901.626 4.747-.04 8.989 1.79 4.511 1.955 6.302 9.506 6.857 12.472l-15.825.016.796-5.036c.218-1.438-2.263-2.047-4.421-2.045-3.758.021-11.437.011-14.512.14-2.122.002-4.622.598-4.426 2.054l.805 4.909zm37.887 1.706l-.001.756c-.11 2.553-1.1 2.14-3.994 2.126l-9.819-.027c-1.798-.034-2.427-.267-2.479-2.083l.019-.737 16.274-.035z" fill="#fff"/></g><defs><filter id="filter0_d" x="6.456" y="26.28" width="127.351" height="106.72" filterUnits="userSpaceOnUse" color-interpolation-filters="sRGB"><feFlood flood-opacity="0" result="BackgroundImageFix"/><feColorMatrix in="SourceAlpha" values="0 0 0 0 0 0 0 0 0 0 0 0 0 0 0 0 0 0 127 0"/><feOffset dy="22"/><feGaussianBlur stdDeviation="21"/><feColorMatrix values="0 0 0 0 0.166667 0 0 0 0 0.166667 0 0 0 0 0.166667 0 0 0 0.07 0"/><feBlend in2="BackgroundImageFix" result="effect1_dropShadow"/><feBlend in="SourceGraphic" in2="effect1_dropShadow" result="shape"/></filter><filter id="filter1_d" x="2.882" y="54.912" width="134.243" height="101.376" filterUnits="userSpaceOnUse" color-interpolation-filters="sRGB"><feFlood flood-opacity="0" result="BackgroundImageFix"/><feColorMatrix in="SourceAlpha" values="0 0 0 0 0 0 0 0 0 0 0 0 0 0 0 0 0 0 127 0"/><feOffset dy="22"/><feGaussianBlur stdDeviation="21"/><feColorMatrix values="0 0 0 0 0.166667 0 0 0 0 0.166667 0 0 0 0 0.166667 0 0 0 0.07 0"/><feBlend in2="BackgroundImageFix" result="effect1_dropShadow"/><feBlend in="SourceGraphic" in2="effect1_dropShadow" result="shape"/></filter><filter id="filter2_d" x="-7.929" y="-20" width="155.929" height="155.929" filterUnits="userSpaceOnUse" color-interpolation-filters="sRGB"><feFlood flood-opacity="0" result="BackgroundImageFix"/><feColorMatrix in="SourceAlpha" values="0 0 0 0 0 0 0 0 0 0 0 0 0 0 0 0 0 0 127 0"/><feOffset dy="22"/><feGaussianBlur stdDeviation="21"/><feColorMatrix values="0 0 0 0 0.166667 0 0 0 0 0.166667 0 0 0 0 0.166667 0 0 0 0.07 0"/><feBlend in2="BackgroundImageFix" result="effect1_dropShadow"/><feBlend in="SourceGraphic" in2="effect1_dropShadow" result="shape"/></filter></defs></svg>