<svg width="56" height="56" fill="none" xmlns="http://www.w3.org/2000/svg"><path d="M28 4.667C15.134 4.667 4.666 15.134 4.666 28v9.667C4.666 40.057 6.76 42 9.333 42h2.333A2.333 2.333 0 0014 39.667v-12a2.333 2.333 0 00-2.334-2.334H9.548c1.297-9.03 9.067-16 18.452-16 9.385 0 17.154 6.97 18.452 16h-2.119A2.333 2.333 0 0042 27.666V42a4.671 4.671 0 01-4.667 4.667h-4.666v-2.334h-9.334v7h14c5.148 0 9.334-4.186 9.334-9.333 2.573 0 4.666-1.944 4.666-4.333V28C51.333 15.134 40.866 4.667 28 4.667z" fill="#fff"/></svg>