<svg width="94" height="41" fill="none" xmlns="http://www.w3.org/2000/svg"><path d="M18.036.436L14.526 13h-2.97L9.198 4.054 6.732 13l-2.952.018L.396.436h2.7l2.214 9.756L7.866.436h2.808l2.412 9.702L15.318.436h2.718zm9.62 10.17H22.65L21.823 13h-2.646L23.695.418h2.934L31.148 13h-2.663l-.829-2.394zm-.684-2.016l-1.819-5.256-1.817 5.256h3.636zM44.392.436L39.784 13h-3.06L32.116.436h2.7l3.456 9.99L41.71.436h2.682zm4.301 2.034v3.15h4.23v1.998h-4.23v3.33h4.77V13h-7.29V.418h7.29V2.47h-4.77zM11.232 27.436l-4.248 8.19V40h-2.52v-4.374l-4.266-8.19h2.844l2.7 5.742 2.682-5.742h2.808zm7.555 12.69a6.51 6.51 0 01-3.24-.828 6.202 6.202 0 01-2.34-2.286c-.576-.984-.864-2.094-.864-3.33 0-1.224.288-2.322.864-3.294a6.162 6.162 0 012.34-2.304 6.51 6.51 0 013.24-.828c1.188 0 2.268.276 3.24.828a6.033 6.033 0 012.322 2.304c.576.972.864 2.07.864 3.294 0 1.236-.288 2.346-.864 3.33a6.07 6.07 0 01-2.322 2.286 6.51 6.51 0 01-3.24.828zm0-2.25c.756 0 1.422-.168 1.998-.504a3.577 3.577 0 001.35-1.476c.324-.636.486-1.374.486-2.214 0-.84-.162-1.572-.486-2.196-.324-.636-.774-1.122-1.35-1.458-.576-.336-1.242-.504-1.998-.504s-1.428.168-2.016.504c-.576.336-1.026.822-1.35 1.458-.324.624-.486 1.356-.486 2.196 0 .84.162 1.578.486 2.214a3.577 3.577 0 001.35 1.476c.588.336 1.26.504 2.016.504zm11.055-10.44v7.776c0 .852.222 1.506.666 1.962.444.444 1.068.666 1.872.666.816 0 1.446-.222 1.89-.666.444-.456.666-1.11.666-1.962v-7.776h2.538v7.758c0 1.068-.234 1.974-.702 2.718a4.344 4.344 0 01-1.854 1.656c-.768.372-1.626.558-2.574.558-.936 0-1.788-.186-2.556-.558a4.277 4.277 0 01-1.8-1.656c-.444-.744-.666-1.65-.666-2.718v-7.758h2.52zM46.66 40l-2.772-4.896H42.7V40h-2.52V27.436h4.716c.972 0 1.8.174 2.484.522.684.336 1.194.798 1.53 1.386.348.576.522 1.224.522 1.944a3.78 3.78 0 01-.72 2.25c-.48.66-1.194 1.116-2.142 1.368L49.575 40h-2.916zm-3.96-6.786h2.106c.684 0 1.194-.162 1.53-.486.336-.336.504-.798.504-1.386 0-.576-.168-1.02-.504-1.332-.336-.324-.846-.486-1.53-.486H42.7v3.69zm20.968.342c.708.132 1.29.486 1.746 1.062.456.576.684 1.236.684 1.98 0 .672-.168 1.266-.504 1.782-.324.504-.798.9-1.422 1.188-.624.288-1.362.432-2.214.432H56.54V27.436h5.184c.852 0 1.584.138 2.196.414.624.276 1.092.66 1.404 1.152.324.492.486 1.05.486 1.674 0 .732-.198 1.344-.594 1.836-.384.492-.9.84-1.548 1.044zm-4.608-.936h2.304c.6 0 1.062-.132 1.386-.396.324-.276.486-.666.486-1.17 0-.504-.162-.894-.486-1.17-.324-.276-.786-.414-1.386-.414H59.06v3.15zm2.538 5.328c.612 0 1.086-.144 1.422-.432.348-.288.522-.696.522-1.224 0-.54-.18-.96-.54-1.26-.36-.312-.846-.468-1.458-.468H59.06v3.384h2.538zm12.61 2.178a6.51 6.51 0 01-3.24-.828 6.202 6.202 0 01-2.34-2.286c-.575-.984-.863-2.094-.863-3.33 0-1.224.288-2.322.864-3.294a6.162 6.162 0 012.34-2.304 6.51 6.51 0 013.24-.828c1.188 0 2.268.276 3.24.828a6.033 6.033 0 012.322 2.304c.576.972.864 2.07.864 3.294 0 1.236-.288 2.346-.864 3.33a6.07 6.07 0 01-2.322 2.286 6.51 6.51 0 01-3.24.828zm0-2.25c.757 0 1.423-.168 1.999-.504a3.577 3.577 0 001.35-1.476c.324-.636.486-1.374.486-2.214 0-.84-.162-1.572-.486-2.196-.324-.636-.774-1.122-1.35-1.458-.576-.336-1.242-.504-1.998-.504s-1.428.168-2.016.504c-.576.336-1.026.822-1.35 1.458-.324.624-.486 1.356-.486 2.196 0 .84.162 1.578.486 2.214a3.577 3.577 0 001.35 1.476c.588.336 1.26.504 2.016.504zM90.304 40l-2.718-4.23L85.119 40h-2.844l3.96-6.336-4.014-6.228h2.897l2.719 4.212 2.447-4.212h2.844l-3.942 6.318L93.2 40h-2.898z" fill="#FBFBFB"/></svg>