<svg width="56" height="56" fill="none" xmlns="http://www.w3.org/2000/svg"><path d="M24.5 22.167h-2.333v-2.334a2.333 2.333 0 10-4.667 0v2.334h-2.333a2.333 2.333 0 100 4.666H17.5v2.334a2.333 2.333 0 104.667 0v-2.334H24.5a2.333 2.333 0 100-4.666zm29.004 5.016l-.14-.256a1.424 1.424 0 00-.164-.327l-5.6-7.467a7.002 7.002 0 00-5.6-2.8h-4.666V14a7 7 0 00-7-7h-21a7 7 0 00-7 7v25.667A2.333 2.333 0 004.667 42H7a7 7 0 1014 0h14a7 7 0 1014 0h2.334a2.333 2.333 0 002.333-2.333V28a2.333 2.333 0 00-.163-.817zM14 44.333a2.333 2.333 0 110-4.666 2.333 2.333 0 010 4.666zm18.667-7H19.18a7 7 0 00-10.36 0H7V14a2.333 2.333 0 012.334-2.333h21A2.333 2.333 0 0132.666 14v23.333zM37.333 21H42a2.333 2.333 0 011.867.933l2.8 3.734h-9.334V21zM42 44.333a2.333 2.333 0 110-4.666 2.333 2.333 0 010 4.666zm7-7h-1.82a7 7 0 00-9.846-.513v-6.487H49v7z" fill="#fff"/></svg>