<svg width="36" height="6" fill="none" xmlns="http://www.w3.org/2000/svg"><path d="M.923 4.5h1.432c.35 0 .685-.316.932-.879l.547-1.242c.247-.563.582-.879.932-.879h.113c.415 0 .806.445 1.055 1.2l.198.6c.249.755.64 1.2 1.055 1.2h1.102c.35 0 .685-.316.932-.879l.547-1.242c.247-.563.582-.879.932-.879h.226c.35 0 .685.316.933.879l.546 1.242c.247.563.583.879.932.879h.886c.35 0 .685-.316.932-.879L15.43 3l.273-.621c.247-.563.582-.879.932-.879h.226c.35 0 .686.316.933.879l.273.621.273.621c.247.563.583.879.933.879h1.102c.21 0 .413-.19.563-.53l.426-.97.273-.621c.247-.563.582-.879.932-.879h.226c.35 0 .686.316.933.879l.546 1.242c.247.563.583.879.933.879h.885c.35 0 .685-.316.933-.879l.546-1.242c.247-.563.582-.879.932-.879h.113" stroke="#006D77" stroke-linecap="round" stroke-linejoin="round"/></svg>