<svg width="75" height="61" fill="none" xmlns="http://www.w3.org/2000/svg"><path d="M2.667 22.6h5.184v18.176h11.232V45H2.667V22.6zm35.22 13.856c0 .064-.032.512-.096 1.344H24.767c.234 1.067.79 1.91 1.664 2.528.874.619 1.962.928 3.264.928.896 0 1.685-.128 2.368-.384a5.947 5.947 0 001.952-1.28l2.656 2.88c-1.622 1.856-3.99 2.784-7.104 2.784-1.942 0-3.659-.373-5.152-1.12-1.494-.768-2.646-1.824-3.456-3.168s-1.216-2.87-1.216-4.576c0-1.685.394-3.2 1.184-4.544a8.4 8.4 0 013.296-3.168c1.408-.768 2.976-1.152 4.704-1.152 1.685 0 3.21.363 4.576 1.088a7.81 7.81 0 013.2 3.136c.79 1.344 1.184 2.912 1.184 4.704zm-8.928-5.152c-1.13 0-2.08.32-2.848.96-.768.64-1.238 1.515-1.408 2.624h8.48c-.17-1.088-.64-1.952-1.408-2.592-.768-.661-1.707-.992-2.816-.992zM51.206 45l-3.777-5.28L43.525 45h-5.44l6.624-8.672-6.4-8.544h5.6l3.648 5.024 3.744-5.024h5.313l-6.4 8.416L56.87 45h-5.664zM60 44a2 2 0 104 0h-4zm0-17v17h4V27h-4z" fill="#fff"/><path d="M73.7 14c.718 0 1.306.583 1.244 1.299-.28 3.236-1.6 6.283-3.752 8.6C68.754 26.526 65.448 28 62 28c-3.448 0-6.754-1.475-9.192-4.1-2.152-2.318-3.472-5.365-3.752-8.601-.062-.716.526-1.299 1.244-1.299s1.293.584 1.37 1.298c.27 2.492 1.312 4.83 2.976 6.622 1.95 2.1 4.596 3.28 7.354 3.28s5.403-1.18 7.354-3.28c1.664-1.793 2.706-4.13 2.976-6.622.077-.714.652-1.298 1.37-1.298z" fill="#fff"/><circle cx="62" cy="19" r="4" fill="#fff"/></svg>