<svg width="149" height="184" fill="none" xmlns="http://www.w3.org/2000/svg"><path d="M87.589 19.372l2.258 3.027c.552.74 1.486.888 2.598.41l2.456-1.053c1.112-.476 2.047-.329 2.599.41l.178.24c.654.878.7 2.494.124 4.363l-.458 1.485c-.577 1.869-.53 3.485.124 4.363l1.738 2.33c.552.74 1.486.887 2.598.41l2.456-1.053c1.112-.477 2.047-.329 2.599.41l.356.479c.552.74.675 2.01.343 3.533l-.733 3.363c-.332 1.523-.208 2.794.343 3.534l1.397 1.872c.552.74 1.486.887 2.598.41l1.228-.526 1.228-.527c1.112-.477 2.047-.33 2.599.41l.357.479c.551.74.674 2.01.343 3.533l-.367 1.681-.367 1.682c-.332 1.523-.208 2.794.343 3.533l1.739 2.33c.333.447.897.536 1.568.248l1.916-.822 1.229-.526c1.112-.477 2.046-.33 2.598.41l.357.479c.551.739.675 2.01.343 3.533l-.734 3.363c-.331 1.523-.208 2.794.344 3.533l1.396 1.873c.552.74 1.486.887 2.599.41l2.456-1.053c1.112-.477 2.046-.33 2.598.41l.178.24M73.04 28.62l2.648 3.549c.647.867 1.673 1.137 2.852.75l2.605-.854c1.18-.386 2.205-.117 2.852.75l.209.28c.767 1.03.92 2.789.41 4.749l-.403 1.556c-.51 1.96-.357 3.72.41 4.748l2.038 2.733c.647.867 1.673 1.137 2.852.75l2.605-.854c1.18-.387 2.205-.117 2.852.75l.418.561c.647.867.862 2.26.597 3.874l-.585 3.562c-.264 1.613-.05 3.006.597 3.873l1.638 2.196c.646.867 1.672 1.137 2.852.75l1.302-.427 1.302-.427c1.18-.387 2.205-.117 2.852.75l.418.561c.647.867.862 2.26.597 3.874l-.292 1.78-.292 1.782c-.265 1.613-.05 3.006.596 3.873l2.038 2.733c.391.523 1.01.686 1.722.453l2.032-.667 1.302-.427c1.18-.387 2.206-.117 2.852.75l.419.561c.646.867.861 2.26.596 3.873l-.584 3.563c-.265 1.613-.05 3.006.596 3.873l1.638 2.196c.647.867 1.673 1.137 2.852.75l2.605-.854c1.179-.387 2.205-.117 2.851.75l.21.28M59.546 39.28l2.887 3.869c.705.945 1.786 1.29 3.007.959l2.695-.732c1.221-.332 2.303.013 3.008.958l.228.306c.837 1.122 1.054 2.968.587 4.984l-.372 1.6c-.467 2.016-.25 3.862.587 4.984l2.222 2.979c.705.945 1.786 1.29 3.007.958l2.696-.732c1.22-.331 2.302.014 3.007.959l.456.611c.705.946.975 2.414.752 4.082l-.493 3.684c-.224 1.669.047 3.137.752 4.082l1.785 2.394c.705.945 1.787 1.29 3.007.958l1.348-.366 1.348-.366c1.22-.331 2.302.014 3.007.959l.456.611c.705.945.976 2.414.752 4.082l-.247 1.842-.246 1.842c-.224 1.668.047 3.137.752 4.082l2.221 2.978c.426.57 1.079.78 1.816.58l2.103-.572 1.348-.366c1.22-.332 2.302.013 3.007.958l.456.612c.705.945.976 2.413.752 4.082l-.493 3.684c-.224 1.668.047 3.136.752 4.082l1.785 2.393c.705.945 1.787 1.29 3.007.959l2.696-.732c1.221-.332 2.302.013 3.007.958l.228.306M47.096 51.34l2.995 4.014c.73.98 1.838 1.36 3.077 1.053l2.737-.677c1.239-.306 2.346.072 3.077 1.053l.237.317c.868 1.164 1.115 3.05.666 5.09l-.356 1.621c-.449 2.04-.202 3.927.666 5.09l2.305 3.09c.731.98 1.838 1.36 3.077 1.053l2.737-.677c1.24-.306 2.346.073 3.078 1.053l.473.635c.731.98 1.027 2.482.822 4.175l-.452 3.74c-.205 1.693.09 3.195.822 4.176l1.852 2.483c.731.98 1.838 1.359 3.078 1.052l1.368-.338 1.368-.338c1.24-.307 2.347.072 3.078 1.052l.473.635c.731.98 1.027 2.482.822 4.176l-.226 1.87-.226 1.87c-.205 1.692.091 3.194.822 4.175l2.305 3.09c.442.592 1.11.82 1.858.636l2.135-.529 1.369-.338c1.239-.307 2.346.072 3.077 1.053l.473.634c.732.981 1.027 2.483.823 4.176l-.453 3.739c-.204 1.694.091 3.196.823 4.176l1.852 2.483c.731.981 1.838 1.359 3.077 1.053l2.737-.677c1.239-.306 2.346.072 3.077 1.053l.237.317M35.73 64.854l2.986 4.002c.73.978 1.834 1.354 3.072 1.046l2.733-.682c1.238-.308 2.342.067 3.072 1.045l.235.316c.866 1.16 1.11 3.043.66 5.081l-.358 1.62c-.45 2.038-.205 3.92.66 5.081l2.298 3.08c.729.978 1.834 1.354 3.072 1.046l2.733-.682c1.237-.308 2.342.068 3.072 1.045l.471.633c.73.977 1.023 2.477.817 4.168l-.456 3.735c-.206 1.69.087 3.19.816 4.168l1.847 2.475c.729.978 1.834 1.354 3.071 1.045l1.367-.341 1.367-.34c1.237-.309 2.342.067 3.072 1.045l.471.632c.73.978 1.023 2.477.817 4.168l-.228 1.867-.228 1.868c-.206 1.691.087 3.19.816 4.168l2.298 3.081c.44.59 1.107.817 1.854.63l2.133-.531 1.367-.341c1.237-.309 2.342.067 3.071 1.045l.472.632c.73.978 1.023 2.477.817 4.168l-.456 3.735c-.206 1.691.087 3.191.816 4.168l1.847 2.476c.729.977 1.834 1.353 3.071 1.045l2.734-.682c1.237-.308 2.342.068 3.071 1.045l.236.316M25.72 80.186l2.848 3.817c.695.932 1.768 1.265 2.982.924l2.68-.752c1.214-.34 2.287-.007 2.982.925l.225.302c.826 1.106 1.032 2.938.558 4.945l-.377 1.593c-.474 2.007-.267 3.838.558 4.945l2.192 2.938c.695.933 1.768 1.265 2.982.925l2.68-.752c1.214-.34 2.287-.008 2.982.924l.45.604c.695.932.957 2.388.727 4.047l-.509 3.664c-.23 1.66.031 3.115.727 4.048l1.76 2.361c.696.932 1.769 1.265 2.983.924l1.34-.376 1.34-.376c1.214-.34 2.287-.008 2.982.925l.45.603c.696.932.957 2.388.727 4.047l-.255 1.833-.254 1.832c-.23 1.659.031 3.115.727 4.047l2.191 2.939c.42.562 1.068.763 1.8.558l2.092-.587 1.34-.376c1.214-.341 2.287-.008 2.982.924l.45.603c.695.933.957 2.389.727 4.048l-.509 3.664c-.23 1.659.031 3.115.727 4.048l1.76 2.361c.696.932 1.769 1.265 2.983.924l2.68-.752c1.214-.34 2.287-.008 2.982.925l.225.301m-66.82-52.329l2.596 3.48c.634.849 1.648 1.103 2.818.704l2.585-.88c1.17-.4 2.184-.146 2.818.704l.205.275c.752 1.009.89 2.749.372 4.697l-.411 1.547c-.518 1.947-.38 3.687.372 4.696l1.998 2.679c.634.85 1.648 1.103 2.818.704l2.585-.88c1.17-.399 2.184-.146 2.818.704l.41.55c.634.85.836 2.227.563 3.828l-.605 3.536c-.274 1.601-.071 2.977.563 3.827l1.605 2.153c.634.85 1.648 1.103 2.818.704l1.292-.44 1.293-.44c1.17-.399 2.184-.146 2.818.704l.41.55c.634.85.836 2.227.563 3.828l-.303 1.768-.302 1.768c-.274 1.601-.071 2.978.563 3.827l1.998 2.679c.382.513.994.666 1.7.426l2.017-.688 1.293-.44c1.17-.399 2.184-.145 2.818.705l.41.55c.634.849.836 2.226.563 3.827l-.605 3.536c-.274 1.601-.071 2.978.563 3.828l1.605 2.152c.634.85 1.648 1.103 2.818.705l2.585-.881c1.17-.399 2.184-.145 2.818.705l.205.275m-61.25-40.885l2.157 2.891c.527.707 1.437.822 2.532.322l2.417-1.105c1.095-.5 2.006-.385 2.533.322l.17.228c.625.838.643 2.418.05 4.263l-.473 1.466c-.594 1.845-.576 3.425.05 4.263l1.66 2.226c.526.706 1.437.822 2.532.322l2.417-1.106c1.095-.5 2.006-.384 2.532.322l.341.457c.527.706.627 1.945.277 3.445l-.771 3.311c-.35 1.499-.25 2.738.276 3.445l1.335 1.788c.526.707 1.437.822 2.532.322l1.209-.552 1.208-.553c1.095-.5 2.006-.385 2.532.322l.341.457c.527.706.627 1.945.277 3.444l-.386 1.656-.386 1.656c-.349 1.499-.25 2.738.278 3.444l1.66 2.226c.318.426.867.496 1.528.194l1.886-.862 1.21-.553c1.094-.5 2.005-.384 2.531.322l.341.457c.527.706.627 1.946.277 3.445l-.772 3.311c-.35 1.499-.25 2.739.277 3.445l1.334 1.788c.527.707 1.438.822 2.533.322l2.417-1.105c1.095-.5 2.005-.385 2.532.322l.17.228M6.769 141.034l1.53 2.052c.375.502 1.139.421 2.125-.224l2.18-1.425c.986-.646 1.75-.726 2.124-.225l.12.162c.445.595.292 1.946-.411 3.645l-.558 1.35c-.704 1.699-.856 3.05-.412 3.645l1.178 1.58c.374.501 1.139.421 2.125-.225l2.179-1.425c.986-.645 1.75-.726 2.124-.224l.242.324c.374.501.327 1.544-.13 2.898l-1.01 2.992c-.458 1.354-.505 2.396-.131 2.898l.947 1.27c.374.501 1.138.42 2.125-.225l1.089-.713 1.09-.712c.986-.645 1.75-.726 2.124-.225l.242.324c.374.502.327 1.544-.13 2.899l-.506 1.495-.505 1.496c-.458 1.355-.505 2.397-.13 2.898l1.178 1.581c.226.302.687.253 1.282-.136l1.7-1.112 1.09-.713c.986-.645 1.75-.726 2.124-.224l.242.324c.374.501.327 1.544-.13 2.898l-1.01 2.992c-.458 1.354-.505 2.397-.131 2.898l.947 1.27c.374.501 1.138.42 2.125-.225l2.178-1.425c.987-.645 1.751-.726 2.125-.225l.12.162M9.194 163.15l-.646 1.232c-.814 1.552-1.14 2.669-.88 3.017l.688.924c.219.293.834.013 1.71-.78l1.937-1.75c.876-.793 1.492-1.074 1.71-.78l.142.189c.218.293.022 1.136-.545 2.343l-1.253 2.666c-.567 1.208-.763 2.05-.545 2.343l.554.743c.219.293.834.012 1.71-.78l.969-.875.968-.876c.876-.792 1.491-1.073 1.71-.78l.142.19c.218.293.022 1.136-.545 2.343l-.627 1.333-.626 1.333c-.568 1.207-.763 2.05-.545 2.343l.69.924c.131.177.502.008 1.031-.471l1.511-1.366.968-.875c.877-.792 1.492-1.073 1.71-.78l.142.19c.219.293.023 1.136-.544 2.343l-1.253 2.666c-.568 1.207-.764 2.05-.545 2.343l.553.742m104-180.178l-.6 1.294c-.755 1.63-.989 2.871-.632 3.35l.949 1.272c.301.404.995.229 1.93-.485l2.065-1.578c.935-.715 1.629-.89 1.93-.486l.195.261c.301.404.184 1.353-.325 2.638l-1.125 2.838c-.509 1.286-.626 2.234-.325 2.638l.763 1.022c.301.404.995.229 1.93-.485l1.032-.79 1.033-.788c.934-.715 1.629-.89 1.93-.486l.195.261c.301.404.184 1.353-.325 2.638l-.563 1.42-.562 1.418c-.509 1.286-.626 2.234-.325 2.638l.949 1.272c.181.243.601.138 1.165-.293l1.611-1.231 1.032-.79c.935-.714 1.629-.888 1.93-.485l.195.261c.301.404.184 1.353-.325 2.638l-1.124 2.838c-.509 1.286-.626 2.234-.325 2.638l.762 1.022m-35.413-18.094l1.701 2.28c.416.558 1.22.53 2.236-.076l2.243-1.338c1.016-.606 1.82-.633 2.236-.076l.134.18c.493.661.387 2.074-.286 3.813l-.535 1.381c-.674 1.74-.78 3.152-.287 3.813l1.309 1.756c.416.557 1.22.53 2.236-.077l2.243-1.338c1.016-.606 1.82-.633 2.236-.076l.268.36c.416.557.409 1.653-.019 3.047l-.946 3.078c-.428 1.394-.435 2.49-.02 3.047l1.052 1.41c.416.557 1.22.53 2.236-.076l1.121-.669 1.122-.669c1.016-.606 1.82-.633 2.236-.076l.268.36c.416.557.409 1.653-.019 3.047l-.473 1.539-.473 1.539c-.428 1.394-.435 2.49-.02 3.047l1.309 1.755c.251.336.737.32 1.35-.046l1.75-1.044 1.122-.67c1.016-.605 1.82-.633 2.235-.075l.269.36c.416.557.409 1.653-.02 3.047l-.945 3.078c-.428 1.394-.435 2.49-.02 3.047l1.052 1.41c.416.557 1.22.53 2.236-.076l2.243-1.338c1.016-.606 1.82-.634 2.235-.077l.135.18" stroke="#F6F6F6" stroke-linecap="round" stroke-linejoin="round"/></svg>