<svg width="56" height="56" viewBox="0 0 56 56" fill="none" xmlns="http://www.w3.org/2000/svg">
    <path d="M39.0835 4.66663H15.7502C13.1765 4.66663 11.0835 6.75963 11.0835 9.33329V46.6666C11.0835 49.2403 13.1765 51.3333 15.7502 51.3333H39.0835C41.6572 51.3333 43.7502 49.2403 43.7502 46.6666V9.33329C43.7502 6.75963 41.6572 4.66663 39.0835 4.66663ZM15.7502 46.6666V9.33329H39.0835L39.0882 46.6666H15.7502Z" fill="white"/>
    <path d="M27.4168 44.3333C28.7055 44.3333 29.7502 43.2886 29.7502 42C29.7502 40.7113 28.7055 39.6666 27.4168 39.6666C26.1282 39.6666 25.0835 40.7113 25.0835 42C25.0835 43.2886 26.1282 44.3333 27.4168 44.3333Z" fill="white"/>
</svg>
