<svg width="139" height="157" viewBox="0 0 139 157" fill="none" xmlns="http://www.w3.org/2000/svg">
    <g filter="url(#filter0_d)">
        <path d="M57.352 46.6V69H53.192V50.088H48.456V46.6H57.352ZM70.3395 46.6V69H66.1795V50.088H61.4435V46.6H70.3395ZM91.807 65.48V69H75.295V66.216L84.191 57.768C85.1937 56.808 85.8657 55.976 86.207 55.272C86.5697 54.5467 86.751 53.832 86.751 53.128C86.751 52.0827 86.399 51.2827 85.695 50.728C84.991 50.1733 83.9563 49.896 82.591 49.896C80.3083 49.896 78.559 50.6747 77.343 52.232L74.431 49.992C75.3057 48.8187 76.479 47.912 77.951 47.272C79.4443 46.6107 81.1083 46.28 82.943 46.28C85.375 46.28 87.3163 46.856 88.767 48.008C90.2177 49.16 90.943 50.728 90.943 52.712C90.943 53.928 90.687 55.0693 90.175 56.136C89.663 57.2027 88.6817 58.4187 87.231 59.784L81.247 65.48H91.807Z" fill="black"/>
    </g>
    <g filter="url(#filter1_d)">
        <path d="M51.7223 92.288C50.3943 92.288 49.1063 92.112 47.8583 91.76C46.6263 91.392 45.6343 90.92 44.8823 90.344L46.2023 87.416C46.9223 87.944 47.7783 88.368 48.7703 88.688C49.7623 89.008 50.7543 89.168 51.7463 89.168C52.8503 89.168 53.6663 89.008 54.1943 88.688C54.7223 88.352 54.9863 87.912 54.9863 87.368C54.9863 86.968 54.8263 86.64 54.5063 86.384C54.2023 86.112 53.8023 85.896 53.3063 85.736C52.8263 85.576 52.1703 85.4 51.3383 85.208C50.0583 84.904 49.0103 84.6 48.1943 84.296C47.3783 83.992 46.6743 83.504 46.0823 82.832C45.5063 82.16 45.2183 81.264 45.2183 80.144C45.2183 79.168 45.4823 78.288 46.0103 77.504C46.5383 76.704 47.3303 76.072 48.3863 75.608C49.4583 75.144 50.7623 74.912 52.2983 74.912C53.3703 74.912 54.4183 75.04 55.4423 75.296C56.4663 75.552 57.3623 75.92 58.1303 76.4L56.9303 79.352C55.3783 78.472 53.8263 78.032 52.2743 78.032C51.1863 78.032 50.3783 78.208 49.8503 78.56C49.3383 78.912 49.0823 79.376 49.0823 79.952C49.0823 80.528 49.3783 80.96 49.9703 81.248C50.5783 81.52 51.4983 81.792 52.7303 82.064C54.0103 82.368 55.0583 82.672 55.8743 82.976C56.6903 83.28 57.3863 83.76 57.9623 84.416C58.5543 85.072 58.8503 85.96 58.8503 87.08C58.8503 88.04 58.5783 88.92 58.0343 89.72C57.5063 90.504 56.7063 91.128 55.6343 91.592C54.5623 92.056 53.2583 92.288 51.7223 92.288ZM70.003 92.288C68.259 92.288 66.683 91.912 65.275 91.16C63.883 90.408 62.787 89.376 61.987 88.064C61.203 86.736 60.811 85.248 60.811 83.6C60.811 81.952 61.203 80.472 61.987 79.16C62.787 77.832 63.883 76.792 65.275 76.04C66.683 75.288 68.259 74.912 70.003 74.912C71.747 74.912 73.315 75.288 74.707 76.04C76.099 76.792 77.195 77.832 77.995 79.16C78.795 80.472 79.195 81.952 79.195 83.6C79.195 85.248 78.795 86.736 77.995 88.064C77.195 89.376 76.099 90.408 74.707 91.16C73.315 91.912 71.747 92.288 70.003 92.288ZM70.003 88.976C70.995 88.976 71.891 88.752 72.691 88.304C73.491 87.84 74.115 87.2 74.563 86.384C75.027 85.568 75.259 84.64 75.259 83.6C75.259 82.56 75.027 81.632 74.563 80.816C74.115 80 73.491 79.368 72.691 78.92C71.891 78.456 70.995 78.224 70.003 78.224C69.011 78.224 68.115 78.456 67.315 78.92C66.515 79.368 65.883 80 65.419 80.816C64.971 81.632 64.747 82.56 64.747 83.6C64.747 84.64 64.971 85.568 65.419 86.384C65.883 87.2 66.515 87.84 67.315 88.304C68.115 88.752 69.011 88.976 70.003 88.976ZM87.997 92.288C86.669 92.288 85.381 92.112 84.133 91.76C82.901 91.392 81.909 90.92 81.157 90.344L82.477 87.416C83.197 87.944 84.053 88.368 85.045 88.688C86.037 89.008 87.029 89.168 88.021 89.168C89.125 89.168 89.941 89.008 90.469 88.688C90.997 88.352 91.261 87.912 91.261 87.368C91.261 86.968 91.101 86.64 90.781 86.384C90.477 86.112 90.077 85.896 89.581 85.736C89.101 85.576 88.445 85.4 87.613 85.208C86.333 84.904 85.285 84.6 84.469 84.296C83.653 83.992 82.949 83.504 82.357 82.832C81.781 82.16 81.493 81.264 81.493 80.144C81.493 79.168 81.757 78.288 82.285 77.504C82.813 76.704 83.605 76.072 84.661 75.608C85.733 75.144 87.037 74.912 88.573 74.912C89.645 74.912 90.693 75.04 91.717 75.296C92.741 75.552 93.637 75.92 94.405 76.4L93.205 79.352C91.653 78.472 90.101 78.032 88.549 78.032C87.461 78.032 86.653 78.208 86.125 78.56C85.613 78.912 85.357 79.376 85.357 79.952C85.357 80.528 85.653 80.96 86.245 81.248C86.853 81.52 87.773 81.792 89.005 82.064C90.285 82.368 91.333 82.672 92.149 82.976C92.965 83.28 93.661 83.76 94.237 84.416C94.829 85.072 95.125 85.96 95.125 87.08C95.125 88.04 94.853 88.92 94.309 89.72C93.781 90.504 92.981 91.128 91.909 91.592C90.837 92.056 89.533 92.288 87.997 92.288Z" fill="white"/>
    </g>
    <g filter="url(#filter2_d)">
        <path d="M59.1349 39.4638L59.1522 40.2011C59.1143 42.1072 58.5026 42.3955 56.6684 42.3973L46.8321 42.461C43.901 42.4819 42.9295 42.9144 42.8603 40.2172L42.843 39.4799L59.1349 39.4638ZM58.9928 37.7017L43.1684 37.7173C43.6029 34.7678 45.2107 27.2676 50.0319 25.3568C54.3493 23.6622 55.14 24.1649 59.0248 23.5496C66.1462 23.0751 74.3999 23.1928 80.7295 23.4023C84.631 24.0278 85.4768 23.3617 89.7188 25.1917C94.2304 27.1473 96.0212 34.698 96.5757 37.6645L80.7513 37.6802L81.5475 32.6444C81.7647 31.2056 79.2838 30.5966 77.1259 30.5988C73.3676 30.6205 65.6892 30.6101 62.6141 30.739C60.4922 30.7411 57.9921 31.337 58.1884 32.7933L58.9928 37.7017ZM96.8797 39.4085L96.8789 40.1638C96.7685 42.7174 95.7799 42.3047 92.8848 42.2896L83.0665 42.2634C81.2683 42.2292 80.6392 41.996 80.587 40.1799L80.6057 39.4426L96.8797 39.4085Z" fill="white"/>
    </g>
    <defs>
        <filter id="filter0_d" x="6.45605" y="26.28" width="127.351" height="106.72" filterUnits="userSpaceOnUse" color-interpolation-filters="sRGB">
            <feFlood flood-opacity="0" result="BackgroundImageFix"/>
            <feColorMatrix in="SourceAlpha" type="matrix" values="0 0 0 0 0 0 0 0 0 0 0 0 0 0 0 0 0 0 127 0"/>
            <feOffset dy="22"/>
            <feGaussianBlur stdDeviation="21"/>
            <feColorMatrix type="matrix" values="0 0 0 0 0.166667 0 0 0 0 0.166667 0 0 0 0 0.166667 0 0 0 0.07 0"/>
            <feBlend mode="normal" in2="BackgroundImageFix" result="effect1_dropShadow"/>
            <feBlend mode="normal" in="SourceGraphic" in2="effect1_dropShadow" result="shape"/>
        </filter>
        <filter id="filter1_d" x="2.88232" y="54.912" width="134.243" height="101.376" filterUnits="userSpaceOnUse" color-interpolation-filters="sRGB">
            <feFlood flood-opacity="0" result="BackgroundImageFix"/>
            <feColorMatrix in="SourceAlpha" type="matrix" values="0 0 0 0 0 0 0 0 0 0 0 0 0 0 0 0 0 0 127 0"/>
            <feOffset dy="22"/>
            <feGaussianBlur stdDeviation="21"/>
            <feColorMatrix type="matrix" values="0 0 0 0 0.166667 0 0 0 0 0.166667 0 0 0 0 0.166667 0 0 0 0.07 0"/>
            <feBlend mode="normal" in2="BackgroundImageFix" result="effect1_dropShadow"/>
            <feBlend mode="normal" in="SourceGraphic" in2="effect1_dropShadow" result="shape"/>
        </filter>
        <filter id="filter2_d" x="-7.92896" y="-20" width="155.929" height="155.929" filterUnits="userSpaceOnUse" color-interpolation-filters="sRGB">
            <feFlood flood-opacity="0" result="BackgroundImageFix"/>
            <feColorMatrix in="SourceAlpha" type="matrix" values="0 0 0 0 0 0 0 0 0 0 0 0 0 0 0 0 0 0 127 0"/>
            <feOffset dy="22"/>
            <feGaussianBlur stdDeviation="21"/>
            <feColorMatrix type="matrix" values="0 0 0 0 0.166667 0 0 0 0 0.166667 0 0 0 0 0.166667 0 0 0 0.07 0"/>
            <feBlend mode="normal" in2="BackgroundImageFix" result="effect1_dropShadow"/>
            <feBlend mode="normal" in="SourceGraphic" in2="effect1_dropShadow" result="shape"/>
        </filter>
    </defs>
</svg>
