<svg width="36" height="6" viewBox="0 0 36 6" fill="none" xmlns="http://www.w3.org/2000/svg">
    <path d="M0.923096 4.5H2.3549C2.70464 4.5 3.04005 4.18394 3.28735 3.62132L3.83356 2.37869C4.08087 1.81607 4.41628 1.5 4.76602 1.5H4.87914C5.2942 1.5 5.68505 1.94458 5.93408 2.7L6.13189 3.3C6.38093 4.05542 6.77177 4.5 7.18683 4.5H8.28899C8.6387 4.5 8.97411 4.18394 9.22142 3.62132L9.76762 2.37869C10.0149 1.81607 10.3503 1.5 10.7001 1.5H10.9263C11.2761 1.5 11.6115 1.81607 11.8588 2.37869L12.405 3.62132C12.6523 4.18394 12.9877 4.5 13.3374 4.5H14.2231C14.5728 4.5 14.9082 4.18394 15.1555 3.62132L15.4286 3L15.7017 2.37869C15.949 1.81607 16.2844 1.5 16.6341 1.5H16.8604C17.2101 1.5 17.5455 1.81607 17.7929 2.37869L18.066 3L18.3391 3.62132C18.5864 4.18394 18.9218 4.5 19.2715 4.5H20.3736C20.5847 4.5 20.7872 4.30923 20.9365 3.96968L21.3627 3L21.6358 2.37869C21.8831 1.81607 22.2185 1.5 22.5682 1.5H22.7945C23.1442 1.5 23.4796 1.81607 23.7269 2.37869L24.2731 3.62132C24.5204 4.18394 24.8558 4.5 25.2056 4.5H26.0912C26.4409 4.5 26.7763 4.18394 27.0236 3.62132L27.5698 2.37869C27.8171 1.81607 28.1525 1.5 28.5023 1.5H28.6154" stroke="#006D77" stroke-linecap="round" stroke-linejoin="round"/>
</svg>
