<svg width="56" height="56" viewBox="0 0 56 56" fill="none" xmlns="http://www.w3.org/2000/svg">
    <path d="M24.5002 22.1667H22.1668V19.8333C22.1668 19.2145 21.921 18.621 21.4834 18.1834C21.0458 17.7458 20.4523 17.5 19.8335 17.5C19.2147 17.5 18.6212 17.7458 18.1836 18.1834C17.746 18.621 17.5002 19.2145 17.5002 19.8333V22.1667H15.1668C14.548 22.1667 13.9545 22.4125 13.5169 22.8501C13.0793 23.2877 12.8335 23.8812 12.8335 24.5C12.8335 25.1188 13.0793 25.7123 13.5169 26.1499C13.9545 26.5875 14.548 26.8333 15.1668 26.8333H17.5002V29.1667C17.5002 29.7855 17.746 30.379 18.1836 30.8166C18.6212 31.2542 19.2147 31.5 19.8335 31.5C20.4523 31.5 21.0458 31.2542 21.4834 30.8166C21.921 30.379 22.1668 29.7855 22.1668 29.1667V26.8333H24.5002C25.119 26.8333 25.7125 26.5875 26.1501 26.1499C26.5877 25.7123 26.8335 25.1188 26.8335 24.5C26.8335 23.8812 26.5877 23.2877 26.1501 22.8501C25.7125 22.4125 25.119 22.1667 24.5002 22.1667ZM53.5035 27.1833L53.3635 26.9267C53.3233 26.8112 53.2684 26.7014 53.2002 26.6L47.6002 19.1333C46.9481 18.264 46.1026 17.5583 45.1307 17.0723C44.1587 16.5863 43.0869 16.3333 42.0002 16.3333H37.3335V14C37.3335 12.1435 36.596 10.363 35.2832 9.05025C33.9705 7.7375 32.19 7 30.3335 7H9.3335C7.47698 7 5.6965 7.7375 4.38375 9.05025C3.07099 10.363 2.3335 12.1435 2.3335 14V39.6667C2.3335 40.2855 2.57933 40.879 3.01691 41.3166C3.4545 41.7542 4.04799 42 4.66683 42H7.00016C7.00016 43.8565 7.73766 45.637 9.05042 46.9497C10.3632 48.2625 12.1436 49 14.0002 49C15.8567 49 17.6372 48.2625 18.9499 46.9497C20.2627 45.637 21.0002 43.8565 21.0002 42H35.0002C35.0002 43.8565 35.7377 45.637 37.0504 46.9497C38.3632 48.2625 40.1436 49 42.0002 49C43.8567 49 45.6372 48.2625 46.9499 46.9497C48.2627 45.637 49.0002 43.8565 49.0002 42H51.3335C51.9523 42 52.5458 41.7542 52.9834 41.3166C53.421 40.879 53.6668 40.2855 53.6668 39.6667V28C53.6618 27.7202 53.6065 27.4436 53.5035 27.1833ZM14.0002 44.3333C13.5387 44.3333 13.0875 44.1965 12.7038 43.9401C12.3201 43.6837 12.021 43.3193 11.8444 42.8929C11.6678 42.4666 11.6216 41.9974 11.7117 41.5448C11.8017 41.0922 12.0239 40.6764 12.3502 40.3501C12.6766 40.0238 13.0923 39.8015 13.545 39.7115C13.9976 39.6215 14.4667 39.6677 14.8931 39.8443C15.3195 40.0209 15.6839 40.32 15.9403 40.7037C16.1966 41.0874 16.3335 41.5385 16.3335 42C16.3335 42.6188 16.0877 43.2123 15.6501 43.6499C15.2125 44.0875 14.619 44.3333 14.0002 44.3333ZM32.6668 37.3333H19.1802C18.5241 36.6115 17.7244 36.0348 16.8323 35.6401C15.9403 35.2454 14.9756 35.0416 14.0002 35.0416C13.0247 35.0416 12.06 35.2454 11.168 35.6401C10.276 36.0348 9.47625 36.6115 8.82016 37.3333H7.00016V14C7.00016 13.3812 7.246 12.7877 7.68358 12.3501C8.12116 11.9125 8.71466 11.6667 9.3335 11.6667H30.3335C30.9523 11.6667 31.5458 11.9125 31.9834 12.3501C32.421 12.7877 32.6668 13.3812 32.6668 14V37.3333ZM37.3335 21H42.0002C42.3624 21 42.7197 21.0843 43.0437 21.2463C43.3677 21.4083 43.6495 21.6435 43.8668 21.9333L46.6668 25.6667H37.3335V21ZM42.0002 44.3333C41.5387 44.3333 41.0875 44.1965 40.7038 43.9401C40.3201 43.6837 40.021 43.3193 39.8444 42.8929C39.6678 42.4666 39.6216 41.9974 39.7117 41.5448C39.8017 41.0922 40.0239 40.6764 40.3502 40.3501C40.6766 40.0238 41.0923 39.8015 41.5449 39.7115C41.9976 39.6215 42.4667 39.6677 42.8931 39.8443C43.3195 40.0209 43.6839 40.32 43.9403 40.7037C44.1966 41.0874 44.3335 41.5385 44.3335 42C44.3335 42.6188 44.0877 43.2123 43.6501 43.6499C43.2125 44.0875 42.619 44.3333 42.0002 44.3333ZM49.0002 37.3333H47.1802C45.9385 35.9661 44.2069 35.145 42.3625 35.0488C40.5182 34.9527 38.7106 35.5893 37.3335 36.82V30.3333H49.0002V37.3333Z" fill="white"/>
</svg>
