<svg width="94" height="41" viewBox="0 0 94 41" fill="none" xmlns="http://www.w3.org/2000/svg">    <path d="M18.036 0.436L14.526 13H11.556L9.198 4.054L6.732 13L3.78 13.018L0.396 0.436H3.096L5.31 10.192L7.866 0.436H10.674L13.086 10.138L15.318 0.436H18.036ZM27.6555 10.606H22.6515L21.8235 13H19.1775L23.6955 0.417999H26.6295L31.1475 13H28.4835L27.6555 10.606ZM26.9715 8.59L25.1535 3.334L23.3355 8.59H26.9715ZM44.3922 0.436L39.7842 13H36.7242L32.1162 0.436H34.8162L38.2722 10.426L41.7102 0.436H44.3922ZM48.6931 2.47V5.62H52.9231V7.618H48.6931V10.948H53.4631V13H46.1731V0.417999H53.4631V2.47H48.6931ZM11.232 27.436L6.984 35.626V40H4.464V35.626L0.198 27.436H3.042L5.742 33.178L8.424 27.436H11.232ZM18.7874 40.126C17.6114 40.126 16.5314 39.85 15.5474 39.298C14.5634 38.746 13.7834 37.984 13.2074 37.012C12.6314 36.028 12.3434 34.918 12.3434 33.682C12.3434 32.458 12.6314 31.36 13.2074 30.388C13.7834 29.404 14.5634 28.636 15.5474 28.084C16.5314 27.532 17.6114 27.256 18.7874 27.256C19.9754 27.256 21.0554 27.532 22.0274 28.084C23.0114 28.636 23.7854 29.404 24.3494 30.388C24.9254 31.36 25.2134 32.458 25.2134 33.682C25.2134 34.918 24.9254 36.028 24.3494 37.012C23.7854 37.984 23.0114 38.746 22.0274 39.298C21.0434 39.85 19.9634 40.126 18.7874 40.126ZM18.7874 37.876C19.5434 37.876 20.2094 37.708 20.7854 37.372C21.3614 37.024 21.8114 36.532 22.1354 35.896C22.4594 35.26 22.6214 34.522 22.6214 33.682C22.6214 32.842 22.4594 32.11 22.1354 31.486C21.8114 30.85 21.3614 30.364 20.7854 30.028C20.2094 29.692 19.5434 29.524 18.7874 29.524C18.0314 29.524 17.3594 29.692 16.7714 30.028C16.1954 30.364 15.7454 30.85 15.4214 31.486C15.0974 32.11 14.9354 32.842 14.9354 33.682C14.9354 34.522 15.0974 35.26 15.4214 35.896C15.7454 36.532 16.1954 37.024 16.7714 37.372C17.3594 37.708 18.0314 37.876 18.7874 37.876ZM29.8422 27.436V35.212C29.8422 36.064 30.0642 36.718 30.5082 37.174C30.9522 37.618 31.5762 37.84 32.3802 37.84C33.1962 37.84 33.8262 37.618 34.2702 37.174C34.7142 36.718 34.9362 36.064 34.9362 35.212V27.436H37.4742V35.194C37.4742 36.262 37.2402 37.168 36.7722 37.912C36.3162 38.644 35.6982 39.196 34.9182 39.568C34.1502 39.94 33.2922 40.126 32.3442 40.126C31.4082 40.126 30.5562 39.94 29.7882 39.568C29.0322 39.196 28.4322 38.644 27.9882 37.912C27.5442 37.168 27.3222 36.262 27.3222 35.194V27.436H29.8422ZM46.659 40L43.887 35.104H42.699V40H40.179V27.436H44.895C45.867 27.436 46.695 27.61 47.379 27.958C48.063 28.294 48.573 28.756 48.909 29.344C49.257 29.92 49.431 30.568 49.431 31.288C49.431 32.116 49.191 32.866 48.711 33.538C48.231 34.198 47.517 34.654 46.569 34.906L49.575 40H46.659ZM42.699 33.214H44.805C45.489 33.214 45.999 33.052 46.335 32.728C46.671 32.392 46.839 31.93 46.839 31.342C46.839 30.766 46.671 30.322 46.335 30.01C45.999 29.686 45.489 29.524 44.805 29.524H42.699V33.214ZM63.6673 33.556C64.3753 33.688 64.9573 34.042 65.4133 34.618C65.8693 35.194 66.0973 35.854 66.0973 36.598C66.0973 37.27 65.9293 37.864 65.5933 38.38C65.2693 38.884 64.7953 39.28 64.1713 39.568C63.5473 39.856 62.8093 40 61.9573 40H56.5393V27.436H61.7233C62.5753 27.436 63.3073 27.574 63.9193 27.85C64.5433 28.126 65.0113 28.51 65.3233 29.002C65.6473 29.494 65.8093 30.052 65.8093 30.676C65.8093 31.408 65.6113 32.02 65.2153 32.512C64.8313 33.004 64.3153 33.352 63.6673 33.556ZM59.0593 32.62H61.3633C61.9633 32.62 62.4253 32.488 62.7493 32.224C63.0733 31.948 63.2353 31.558 63.2353 31.054C63.2353 30.55 63.0733 30.16 62.7493 29.884C62.4253 29.608 61.9633 29.47 61.3633 29.47H59.0593V32.62ZM61.5973 37.948C62.2093 37.948 62.6833 37.804 63.0193 37.516C63.3673 37.228 63.5413 36.82 63.5413 36.292C63.5413 35.752 63.3613 35.332 63.0013 35.032C62.6413 34.72 62.1553 34.564 61.5433 34.564H59.0593V37.948H61.5973ZM74.2077 40.126C73.0317 40.126 71.9517 39.85 70.9677 39.298C69.9837 38.746 69.2037 37.984 68.6277 37.012C68.0517 36.028 67.7637 34.918 67.7637 33.682C67.7637 32.458 68.0517 31.36 68.6277 30.388C69.2037 29.404 69.9837 28.636 70.9677 28.084C71.9517 27.532 73.0317 27.256 74.2077 27.256C75.3957 27.256 76.4757 27.532 77.4477 28.084C78.4317 28.636 79.2057 29.404 79.7697 30.388C80.3457 31.36 80.6337 32.458 80.6337 33.682C80.6337 34.918 80.3457 36.028 79.7697 37.012C79.2057 37.984 78.4317 38.746 77.4477 39.298C76.4637 39.85 75.3837 40.126 74.2077 40.126ZM74.2077 37.876C74.9637 37.876 75.6297 37.708 76.2057 37.372C76.7817 37.024 77.2317 36.532 77.5557 35.896C77.8797 35.26 78.0417 34.522 78.0417 33.682C78.0417 32.842 77.8797 32.11 77.5557 31.486C77.2317 30.85 76.7817 30.364 76.2057 30.028C75.6297 29.692 74.9637 29.524 74.2077 29.524C73.4517 29.524 72.7797 29.692 72.1917 30.028C71.6157 30.364 71.1657 30.85 70.8417 31.486C70.5177 32.11 70.3557 32.842 70.3557 33.682C70.3557 34.522 70.5177 35.26 70.8417 35.896C71.1657 36.532 71.6157 37.024 72.1917 37.372C72.7797 37.708 73.4517 37.876 74.2077 37.876ZM90.3025 40L87.5845 35.77L85.1185 40H82.2745L86.2345 33.664L82.2205 27.436H85.1185L87.8365 31.648L90.2845 27.436H93.1285L89.1865 33.754L93.2005 40H90.3025Z"          fill="#FBFBFB"/></svg>