<svg width="75" height="61" viewBox="0 0 75 61" fill="none" xmlns="http://www.w3.org/2000/svg">
    <path d="M2.66725 22.6H7.85125V40.776H19.0833V45H2.66725V22.6ZM37.8868 36.456C37.8868 36.52 37.8548 36.968 37.7908 37.8H24.7668C25.0014 38.8667 25.5561 39.7093 26.4308 40.328C27.3054 40.9467 28.3934 41.256 29.6948 41.256C30.5908 41.256 31.3801 41.128 32.0628 40.872C32.7668 40.5947 33.4174 40.168 34.0148 39.592L36.6708 42.472C35.0494 44.328 32.6814 45.256 29.5668 45.256C27.6254 45.256 25.9081 44.8827 24.4148 44.136C22.9214 43.368 21.7694 42.312 20.9588 40.968C20.1481 39.624 19.7428 38.0987 19.7428 36.392C19.7428 34.7067 20.1374 33.192 20.9268 31.848C21.7374 30.4827 22.8361 29.4267 24.2228 28.68C25.6308 27.912 27.1988 27.528 28.9268 27.528C30.6121 27.528 32.1374 27.8907 33.5028 28.616C34.8681 29.3413 35.9348 30.3867 36.7028 31.752C37.4921 33.096 37.8868 34.664 37.8868 36.456ZM28.9588 31.304C27.8281 31.304 26.8788 31.624 26.1108 32.264C25.3428 32.904 24.8734 33.7787 24.7028 34.888H33.1828C33.0121 33.8 32.5428 32.936 31.7748 32.296C31.0068 31.6347 30.0681 31.304 28.9588 31.304ZM51.2055 45L47.4295 39.72L43.5255 45H38.0855L44.7095 36.328L38.3095 27.784H43.9095L47.5575 32.808L51.3015 27.784H56.6135L50.2135 36.2L56.8695 45H51.2055Z" fill="white"/>
    <path d="M60 44C60 45.1046 60.8954 46 62 46C63.1046 46 64 45.1046 64 44H60ZM60 27V44H64V27H60Z" fill="white"/>
    <path d="M73.7 14C74.418 14 75.0058 14.5832 74.944 15.2985C74.6641 18.5352 73.3445 21.5818 71.1924 23.8995C68.7544 26.525 65.4478 28 62 28C58.5522 28 55.2456 26.525 52.8076 23.8995C50.6555 21.5818 49.3359 18.5352 49.056 15.2985C48.9942 14.5832 49.582 14 50.3 14C51.018 14 51.5927 14.5838 51.67 15.2976C51.9399 17.7902 52.9819 20.1273 54.6461 21.9196C56.5965 24.02 59.2417 25.2 62 25.2C64.7583 25.2 67.4035 24.02 69.3539 21.9196C71.0181 20.1273 72.0601 17.7902 72.33 15.2976C72.4073 14.5838 72.982 14 73.7 14Z" fill="white"/>
    <circle cx="62" cy="19" r="4" fill="white"/>
</svg>
