<svg width="56" height="56" viewBox="0 0 56 56" fill="none" xmlns="http://www.w3.org/2000/svg">
    <path d="M27.9998 4.66663C15.1338 4.66663 4.6665 15.134 4.6665 28V37.667C4.6665 40.0563 6.7595 42 9.33317 42H11.6665C12.2853 42 12.8788 41.7541 13.3164 41.3165C13.754 40.879 13.9998 40.2855 13.9998 39.6666V27.6663C13.9998 27.0475 13.754 26.454 13.3164 26.0164C12.8788 25.5788 12.2853 25.333 11.6665 25.333H9.54784C10.8452 16.303 18.6152 9.33329 27.9998 9.33329C37.3845 9.33329 45.1545 16.303 46.4518 25.333H44.3332C43.7143 25.333 43.1208 25.5788 42.6833 26.0164C42.2457 26.454 41.9998 27.0475 41.9998 27.6663V42C41.9998 44.5736 39.9068 46.6666 37.3332 46.6666H32.6665V44.3333H23.3332V51.3333H37.3332C42.4805 51.3333 46.6665 47.1473 46.6665 42C49.2402 42 51.3332 40.0563 51.3332 37.667V28C51.3332 15.134 40.8658 4.66663 27.9998 4.66663Z" fill="white"/>
</svg>
