<svg width="56" height="56" viewBox="0 0 56 56" fill="none" xmlns="http://www.w3.org/2000/svg">
    <path d="M27.9998 25.6667C29.8458 25.6667 31.6503 25.1193 33.1852 24.0937C34.72 23.0682 35.9163 21.6105 36.6227 19.9051C37.3291 18.1996 37.514 16.323 37.1538 14.5125C36.7937 12.702 35.9048 11.039 34.5995 9.73367C33.2942 8.42838 31.6312 7.53947 29.8207 7.17934C28.0102 6.81921 26.1336 7.00404 24.4281 7.71046C22.7227 8.41688 21.265 9.61316 20.2395 11.148C19.2139 12.6829 18.6665 14.4874 18.6665 16.3333C18.6665 18.8087 19.6498 21.1827 21.4002 22.933C23.1505 24.6833 25.5245 25.6667 27.9998 25.6667ZM27.9998 11.6667C28.9228 11.6667 29.8251 11.9404 30.5925 12.4531C31.3599 12.9659 31.9581 13.6948 32.3113 14.5475C32.6645 15.4002 32.7569 16.3385 32.5768 17.2438C32.3968 18.149 31.9523 18.9805 31.2997 19.6332C30.647 20.2858 29.8155 20.7303 28.9103 20.9103C28.005 21.0904 27.0667 20.998 26.214 20.6448C25.3613 20.2916 24.6324 19.6934 24.1196 18.926C23.6069 18.1586 23.3332 17.2563 23.3332 16.3333C23.3332 15.0957 23.8248 13.9087 24.7 13.0335C25.5752 12.1583 26.7622 11.6667 27.9998 11.6667ZM27.9998 30.3333C23.668 30.3333 19.5135 32.0542 16.4504 35.1173C13.3873 38.1804 11.6665 42.3348 11.6665 46.6667C11.6665 47.2855 11.9123 47.879 12.3499 48.3166C12.7875 48.7542 13.381 49 13.9998 49C14.6187 49 15.2122 48.7542 15.6498 48.3166C16.0873 47.879 16.3332 47.2855 16.3332 46.6667C16.3332 43.5725 17.5623 40.605 19.7503 38.4171C21.9382 36.2292 24.9056 35 27.9998 35C31.094 35 34.0615 36.2292 36.2494 38.4171C38.4373 40.605 39.6665 43.5725 39.6665 46.6667C39.6665 47.2855 39.9123 47.879 40.3499 48.3166C40.7875 48.7542 41.381 49 41.9998 49C42.6187 49 43.2122 48.7542 43.6498 48.3166C44.0873 47.879 44.3332 47.2855 44.3332 46.6667C44.3332 42.3348 42.6123 38.1804 39.5493 35.1173C36.4862 32.0542 32.3317 30.3333 27.9998 30.3333Z"
          fill="white"/>
</svg>
