<svg width="149" height="184" viewBox="0 0 149 184" fill="none" xmlns="http://www.w3.org/2000/svg">
    <path d="M87.5887 19.3719L89.8469 22.3995C90.3985 23.139 91.3331 23.2866 92.4452 22.8097L94.9012 21.7565C96.0133 21.2796 96.9479 21.4272 97.4995 22.1667L97.6779 22.4059C98.3325 23.2836 98.3784 24.9001 97.8018 26.7691L97.3438 28.2536C96.7672 30.1226 96.8131 31.7391 97.4678 32.6168L99.2061 34.9473C99.7576 35.6868 100.692 35.8344 101.804 35.3575L104.26 34.3043C105.372 33.8274 106.307 33.975 106.859 34.7145L107.215 35.193C107.767 35.9324 107.89 37.2033 107.558 38.7261L106.825 42.0893C106.493 43.6121 106.617 44.883 107.168 45.6225L108.565 47.4951C109.117 48.2346 110.051 48.3822 111.163 47.9053L112.391 47.3787L113.619 46.8521C114.731 46.3752 115.666 46.5228 116.218 47.2623L116.575 47.7408C117.126 48.4802 117.249 49.7511 116.918 51.2739L116.551 52.9555L116.184 54.6371C115.852 56.1599 115.976 57.4308 116.527 58.1703L118.266 60.5008C118.599 60.9471 119.163 61.0362 119.834 60.7485L121.75 59.9265L122.979 59.3999C124.091 58.923 125.025 59.0706 125.577 59.8101L125.934 60.2886C126.485 61.028 126.609 62.2989 126.277 63.8217L125.543 67.1849C125.212 68.7077 125.335 69.9786 125.887 70.718L127.283 72.5907C127.835 73.3302 128.769 73.4778 129.882 73.0009L132.338 71.9477C133.45 71.4708 134.384 71.6184 134.936 72.3579L135.114 72.5971" stroke="#F6F6F6" stroke-linecap="round" stroke-linejoin="round"/>
    <path d="M73.0406 28.6192L75.6883 32.169C76.335 33.036 77.3609 33.3059 78.5402 32.9192L81.1448 32.0652C82.3241 31.6785 83.3499 31.9484 83.9967 32.8155L84.2059 33.0959C84.9734 34.1249 85.1256 35.884 84.6167 37.8439L84.2126 39.4005C83.7037 41.3603 83.8559 43.1194 84.6234 44.1484L86.6615 46.8809C87.3082 47.7479 88.334 48.0178 89.5134 47.6312L92.118 46.7771C93.2973 46.3904 94.3231 46.6603 94.9698 47.5273L95.3883 48.0883C96.035 48.9554 96.2496 50.3486 95.985 51.9616L95.4004 55.524C95.1357 57.1369 95.3504 58.5302 95.997 59.3972L97.6347 61.5928C98.2814 62.4599 99.3072 62.7298 100.487 62.3431L101.789 61.916L103.091 61.489C104.271 61.1023 105.296 61.3722 105.943 62.2392L106.361 62.8003C107.008 63.6673 107.223 65.0605 106.958 66.6735L106.666 68.4547L106.374 70.2359C106.109 71.8489 106.324 73.2421 106.97 74.1091L109.008 76.8416C109.399 77.3648 110.018 77.5278 110.73 77.2945L112.762 76.628L114.064 76.2009C115.244 75.8143 116.27 76.0841 116.916 76.9512L117.335 77.5122C117.981 78.3792 118.196 79.7724 117.931 81.3854L117.347 84.9478C117.082 86.5608 117.297 87.954 117.943 88.821L119.581 91.0167C120.228 91.8837 121.254 92.1536 122.433 91.7669L125.038 90.9128C126.217 90.5262 127.243 90.7961 127.889 91.6631L128.099 91.9436" stroke="#F6F6F6" stroke-linecap="round" stroke-linejoin="round"/>
    <path d="M59.5463 39.2793L62.4326 43.149C63.1376 44.0942 64.2193 44.439 65.4398 44.1076L68.1355 43.3756C69.356 43.0441 70.4377 43.3889 71.1428 44.3342L71.3708 44.6399C72.2075 45.7617 72.4249 47.6081 71.9575 49.6236L71.5863 51.2244C71.1189 53.2399 71.3363 55.0863 72.173 56.208L74.3947 59.1868C75.0997 60.1319 76.1814 60.4768 77.402 60.1454L80.0976 59.4133C81.3182 59.0819 82.3999 59.4267 83.1049 60.3719L83.561 60.9835C84.266 61.9286 84.5365 63.3968 84.3131 65.065L83.8195 68.7494C83.5961 70.4177 83.8666 71.8858 84.5716 72.831L86.3569 75.2245C87.0618 76.1697 88.1436 76.5145 89.3641 76.1831L90.7119 75.8171L92.0598 75.4511C93.2803 75.1197 94.362 75.4645 95.067 76.4097L95.5231 77.0212C96.2281 77.9664 96.4986 79.4346 96.2752 81.1028L96.0284 82.945L95.7816 84.7872C95.5582 86.4555 95.8288 87.9236 96.5337 88.8688L98.7555 91.8475C99.1809 92.4179 99.8339 92.6262 100.571 92.4262L102.674 91.8549L104.022 91.4888C105.242 91.1574 106.324 91.5023 107.029 92.4474L107.485 93.059C108.19 94.0042 108.461 95.4723 108.237 97.1406L107.744 100.825C107.52 102.493 107.791 103.961 108.496 104.907L110.281 107.3C110.986 108.245 112.068 108.59 113.288 108.259L115.984 107.527C117.205 107.195 118.286 107.54 118.991 108.485L119.219 108.791" stroke="#F6F6F6" stroke-linecap="round" stroke-linejoin="round"/>
    <path d="M47.0963 51.3397L50.0905 55.354C50.8218 56.3346 51.9288 56.7133 53.168 56.4069L55.9048 55.73C57.144 55.4236 58.251 55.8023 58.9823 56.7828L59.2189 57.1C60.0869 58.2637 60.3337 60.1496 59.8851 62.1902L59.5288 63.811C59.0802 65.8517 59.327 67.7376 60.195 68.9013L62.4998 71.9914C63.2311 72.9719 64.3381 73.3506 65.5773 73.0442L68.3141 72.3673C69.5533 72.0609 70.6603 72.4396 71.3916 73.4201L71.8648 74.0545C72.5961 75.035 72.8919 76.537 72.6871 78.2303L72.2347 81.9699C72.0299 83.6631 72.3257 85.1651 73.057 86.1456L74.9091 88.6286C75.6404 89.6091 76.7474 89.9878 77.9865 89.6814L79.355 89.343L80.7234 89.0046C81.9625 88.6981 83.0695 89.0768 83.8009 90.0573L84.2741 90.6918C85.0054 91.6723 85.3012 93.1743 85.0964 94.8675L84.8702 96.7373L84.644 98.6071C84.4392 100.3 84.735 101.802 85.4663 102.783L87.7711 105.873C88.2125 106.465 88.8807 106.693 89.6286 106.509L91.7642 105.98L93.1326 105.642C94.3718 105.335 95.4788 105.714 96.2101 106.695L96.6833 107.329C97.4147 108.31 97.7105 109.812 97.5057 111.505L97.0533 115.244C96.8485 116.938 97.1443 118.44 97.8756 119.42L99.7276 121.903C100.459 122.884 101.566 123.262 102.805 122.956L105.542 122.279C106.781 121.973 107.888 122.351 108.619 123.332L108.856 123.649" stroke="#F6F6F6" stroke-linecap="round" stroke-linejoin="round"/>
    <path d="M35.7307 64.8542L38.7159 68.8565C39.4451 69.8341 40.55 70.21 41.7876 69.9015L44.521 69.22C45.7586 68.9115 46.8634 69.2874 47.5926 70.265L47.8285 70.5812C48.6938 71.7414 48.9382 73.624 48.488 75.6625L48.1305 77.2817C47.6803 79.3203 47.9247 81.2028 48.79 82.363L51.0879 85.4439C51.817 86.4214 52.9219 86.7973 54.1595 86.4888L56.8929 85.8073C58.1305 85.4988 59.2354 85.8747 59.9645 86.8522L60.4363 87.4848C61.1654 88.4623 61.4591 89.9615 61.2528 91.6527L60.797 95.3877C60.5906 97.0788 60.8843 98.578 61.6134 99.5556L63.4599 102.031C64.189 103.009 65.2939 103.385 66.5315 103.076L67.8982 102.735L69.2649 102.395C70.5025 102.086 71.6074 102.462 72.3365 103.44L72.8083 104.072C73.5374 105.05 73.8311 106.549 73.6248 108.24L73.3968 110.107L73.1689 111.975C72.9626 113.666 73.2563 115.165 73.9854 116.143L76.2833 119.224C76.7233 119.814 77.3903 120.041 78.1372 119.854L80.2701 119.323L81.6368 118.982C82.8744 118.673 83.9793 119.049 84.7084 120.027L85.1802 120.659C85.9094 121.637 86.2031 123.136 85.9967 124.827L85.5409 128.562C85.3345 130.253 85.6282 131.753 86.3573 132.73L88.2038 135.206C88.9329 136.183 90.0378 136.559 91.2754 136.251L94.0088 135.569C95.2464 135.261 96.3513 135.637 97.0804 136.614L97.3163 136.93" stroke="#F6F6F6" stroke-linecap="round" stroke-linejoin="round"/>
    <path d="M25.7207 80.1858L28.5679 84.003C29.2634 84.9354 30.3359 85.268 31.5497 84.9275L34.2304 84.1754C35.4442 83.835 36.5167 84.1675 37.2122 85.0999L37.4371 85.4015C38.2625 86.5081 38.4692 88.3401 37.995 90.3465L37.6184 91.9401C37.1442 93.9465 37.3509 95.7785 38.1763 96.8851L40.3679 99.8235C41.0633 100.756 42.1359 101.088 43.3497 100.748L46.0304 99.9958C47.2442 99.6554 48.3167 99.9879 49.0121 100.92L49.4621 101.524C50.1575 102.456 50.4189 103.912 50.1887 105.571L49.6802 109.235C49.45 110.895 49.7114 112.35 50.4068 113.283L52.1679 115.644C52.8633 116.576 53.9359 116.909 55.1496 116.568L56.49 116.192L57.8304 115.816C59.0441 115.476 60.1167 115.808 60.8121 116.741L61.2621 117.344C61.9575 118.276 62.2189 119.732 61.9887 121.391L61.7344 123.224L61.4802 125.056C61.25 126.715 61.5114 128.171 62.2068 129.103L64.3984 132.042C64.8181 132.604 65.4656 132.805 66.1981 132.6L68.29 132.013L69.6303 131.637C70.8441 131.296 71.9167 131.629 72.6121 132.561L73.0621 133.164C73.7575 134.097 74.0188 135.553 73.7887 137.212L73.2802 140.876C73.05 142.535 73.3113 143.991 74.0068 144.924L75.7678 147.285C76.4633 148.217 77.5358 148.55 78.7496 148.209L81.4303 147.457C82.6441 147.117 83.7167 147.449 84.4121 148.382L84.6371 148.683" stroke="#F6F6F6" stroke-linecap="round" stroke-linejoin="round"/>
    <path d="M17.8175 96.3536L20.4131 99.8334C21.047 100.683 22.0607 100.937 23.2309 100.538L25.8157 99.6574C26.986 99.2587 27.9996 99.5122 28.6336 100.362L28.8387 100.637C29.5911 101.646 29.7291 103.386 29.2111 105.334L28.7997 106.881C28.2818 108.828 28.4198 110.568 29.1722 111.577L31.1701 114.256C31.8041 115.106 32.8177 115.359 33.988 114.96L36.5727 114.08C37.7431 113.681 38.7567 113.934 39.3906 114.784L39.8008 115.334C40.4348 116.184 40.6372 117.561 40.3635 119.162L39.759 122.698C39.4854 124.299 39.6878 125.675 40.3218 126.525L41.9272 128.678C42.5611 129.528 43.5747 129.781 44.7451 129.382L46.0374 128.942L47.3298 128.502C48.5001 128.103 49.5137 128.356 50.1477 129.206L50.5579 129.756C51.1918 130.606 51.3942 131.983 51.1206 133.584L50.8183 135.352L50.5161 137.12C50.2424 138.721 50.4449 140.098 51.0788 140.947L53.0768 143.626C53.4593 144.139 54.0712 144.292 54.7775 144.052L56.7945 143.364L58.0868 142.924C59.2572 142.525 60.2708 142.779 60.9047 143.629L61.3149 144.179C61.9489 145.028 62.1513 146.405 61.8776 148.006L61.2731 151.542C60.9995 153.143 61.2019 154.52 61.8359 155.37L63.4413 157.522C64.0752 158.372 65.0888 158.625 66.2592 158.227L68.8439 157.346C70.0142 156.947 71.0278 157.201 71.6618 158.051L71.8669 158.326" stroke="#F6F6F6" stroke-linecap="round" stroke-linejoin="round"/>
    <path d="M10.6169 117.441L12.7737 120.332C13.3006 121.039 14.2114 121.154 15.3059 120.654L17.7234 119.549C18.8179 119.049 19.7287 119.164 20.2556 119.871L20.426 120.099C21.0512 120.937 21.0694 122.517 20.4752 124.362L20.0032 125.828C19.409 127.673 19.4272 129.253 20.0524 130.091L21.7127 132.317C22.2395 133.023 23.1503 133.139 24.2449 132.639L26.6623 131.533C27.7568 131.033 28.6676 131.149 29.1944 131.855L29.5353 132.312C30.0621 133.018 30.1618 134.257 29.8123 135.757L29.0405 139.068C28.6911 140.567 28.7907 141.806 29.3175 142.513L30.6516 144.301C31.1784 145.008 32.0893 145.123 33.1838 144.623L34.3925 144.071L35.6012 143.518C36.6957 143.018 37.6066 143.133 38.1334 143.84L38.4742 144.297C39.001 145.003 39.1007 146.242 38.7513 147.741L38.3653 149.397L37.9794 151.053C37.63 152.552 37.7297 153.791 38.2565 154.497L39.9167 156.723C40.2346 157.149 40.7845 157.219 41.4451 156.917L43.3314 156.055L44.5401 155.502C45.6346 155.002 46.5455 155.118 47.0723 155.824L47.4132 156.281C47.94 156.987 48.0396 158.227 47.6902 159.726L46.9184 163.037C46.5689 164.536 46.6686 165.776 47.1954 166.482L48.5295 168.27C49.0563 168.977 49.9671 169.092 51.0616 168.592L53.479 167.487C54.5736 166.987 55.4844 167.102 56.0112 167.809L56.1816 168.037" stroke="#F6F6F6" stroke-linecap="round" stroke-linejoin="round"/>
    <path d="M6.76865 141.034L8.29974 143.086C8.67373 143.588 9.43798 143.507 10.4244 142.862L12.6031 141.437C13.5896 140.791 14.3538 140.711 14.7278 141.212L14.8488 141.374C15.2926 141.969 15.14 143.32 14.437 145.019L13.8785 146.369C13.1754 148.068 13.0229 149.419 13.4667 150.014L14.6453 151.594C15.0193 152.095 15.7835 152.015 16.77 151.369L18.9486 149.944C19.9351 149.299 20.6994 149.218 21.0733 149.72L21.3153 150.044C21.6893 150.545 21.6423 151.588 21.1848 152.942L20.1743 155.934C19.7168 157.288 19.6698 158.33 20.0438 158.832L20.9908 160.102C21.3648 160.603 22.1291 160.522 23.1155 159.877L24.2048 159.164L25.2942 158.452C26.2806 157.807 27.0449 157.726 27.4189 158.227L27.6608 158.551C28.0348 159.053 27.9879 160.095 27.5304 161.45L27.0251 162.945L26.5198 164.441C26.0623 165.796 26.0154 166.838 26.3893 167.339L27.5679 168.92C27.7936 169.222 28.2549 169.173 28.8503 168.784L30.5504 167.672L31.6397 166.959C32.6262 166.314 33.3904 166.233 33.7644 166.735L34.0064 167.059C34.3803 167.56 34.3334 168.603 33.8759 169.957L32.8654 172.949C32.4078 174.303 32.3609 175.346 32.7349 175.847L33.6819 177.117C34.0559 177.618 34.8201 177.537 35.8066 176.892L37.9853 175.467C38.9717 174.822 39.736 174.741 40.1099 175.242L40.2309 175.404" stroke="#F6F6F6" stroke-linecap="round" stroke-linejoin="round"/>
    <path d="M9.19387 163.15L8.54757 164.382C7.73388 165.934 7.40771 167.051 7.66719 167.399L8.35622 168.323C8.57485 168.616 9.19012 168.336 10.0667 167.543L12.0028 165.793C12.8794 165 13.4947 164.719 13.7133 165.013L13.8548 165.202C14.0734 165.495 13.8775 166.338 13.3101 167.545L12.057 170.211C11.4896 171.419 11.2937 172.261 11.5123 172.554L12.066 173.297C12.2846 173.59 12.8999 173.309 13.7765 172.517L14.7445 171.642L15.7126 170.766C16.5892 169.974 17.2044 169.693 17.4231 169.986L17.5645 170.176C17.7832 170.469 17.5873 171.312 17.0199 172.519L16.3933 173.852L15.7668 175.185C15.1994 176.392 15.0035 177.235 15.2221 177.528L15.9111 178.452C16.0431 178.629 16.4145 178.46 16.9435 177.981L18.4543 176.615L19.4223 175.74C20.2989 174.948 20.9142 174.667 21.1328 174.96L21.2743 175.15C21.4929 175.443 21.297 176.286 20.7297 177.493L19.4765 180.159C18.9092 181.366 18.7133 182.209 18.9319 182.502L19.4855 183.244" stroke="#F6F6F6" stroke-linecap="round" stroke-linejoin="round"/>
    <path d="M123.485 3.06573L122.885 4.36024C122.13 5.99007 121.896 7.23117 122.253 7.71016L123.202 8.98206C123.503 9.38563 124.197 9.21102 125.132 8.49661L127.197 6.91867C128.132 6.20425 128.826 6.02964 129.127 6.43322L129.322 6.69435C129.623 7.09793 129.506 8.04666 128.997 9.33189L127.872 12.1705C127.363 13.4557 127.246 14.4044 127.547 14.808L128.31 15.83C128.611 16.2336 129.305 16.059 130.24 15.3446L131.272 14.5556L132.305 13.7666C133.239 13.0522 133.934 12.8776 134.235 13.2812L134.43 13.5423C134.731 13.9459 134.614 14.8946 134.105 16.1799L133.542 17.5992L132.98 19.0184C132.471 20.3037 132.354 21.2524 132.655 21.656L133.604 22.9279C133.785 23.1714 134.205 23.0661 134.769 22.6349L136.38 21.4036L137.412 20.6146C138.347 19.9002 139.041 19.7256 139.342 20.1292L139.537 20.3903C139.838 20.7939 139.721 21.7426 139.212 23.0278L138.088 25.8664C137.579 27.1516 137.462 28.1004 137.763 28.504L138.525 29.526" stroke="#F6F6F6" stroke-linecap="round" stroke-linejoin="round"/>
    <path d="M103.112 11.4321L104.813 13.7127C105.229 14.2698 106.033 14.2423 107.049 13.6364L109.292 12.2982C110.308 11.6923 111.112 11.6649 111.528 12.222L111.662 12.4021C112.155 13.0633 112.049 14.4759 111.376 16.215L110.841 17.5963C110.167 19.3354 110.061 20.748 110.554 21.4091L111.863 23.1646C112.279 23.7216 113.083 23.6942 114.099 23.0883L116.342 21.7501C117.358 21.1442 118.162 21.1168 118.578 21.6738L118.846 22.0342C119.262 22.5913 119.255 23.6872 118.827 25.0809L117.881 28.1592C117.453 29.5529 117.446 30.6488 117.861 31.2059L118.913 32.6165C119.329 33.1735 120.133 33.1461 121.149 32.5402L122.27 31.8711L123.392 31.202C124.408 30.5961 125.212 30.5687 125.628 31.1257L125.896 31.4861C126.312 32.0432 126.305 33.1391 125.877 34.5328L125.404 36.0719L124.931 37.611C124.503 39.0048 124.496 40.1007 124.911 40.6577L126.22 42.4133C126.471 42.7494 126.957 42.7329 127.57 42.3673L129.32 41.323L130.442 40.6539C131.458 40.048 132.262 40.0205 132.677 40.5776L132.946 40.938C133.362 41.495 133.355 42.591 132.926 43.9847L131.981 47.0629C131.553 48.4567 131.546 49.5526 131.961 50.1096L133.013 51.5203C133.429 52.0773 134.233 52.0499 135.249 51.444L137.492 50.1057C138.508 49.4999 139.312 49.4724 139.727 50.0295L139.862 50.2097" stroke="#F6F6F6" stroke-linecap="round" stroke-linejoin="round"/>
</svg>
