<?xml version="1.0" standalone="no"?>
<!DOCTYPE svg PUBLIC "-//W3C//DTD SVG 20010904//EN"
 "http://www.w3.org/TR/2001/REC-SVG-20010904/DTD/svg10.dtd">
<svg version="1.0" xmlns="http://www.w3.org/2000/svg"
 width="700.000000pt" height="700.000000pt" viewBox="0 0 700.000000 700.000000"
 preserveAspectRatio="xMidYMid meet">
<metadata>
Created by potrace 1.11, written by Peter Selinger 2001-2013
</metadata>
<g transform="translate(0.000000,700.000000) scale(0.100000,-0.100000)"
fill="#000000" stroke="none">
<path d="M5085 5733 c-196 -188 -303 -290 -444 -423 -79 -74 -164 -155 -190
-180 -67 -64 -358 -342 -646 -615 -87 -82 -179 -171 -204 -196 -33 -32 -50
-42 -58 -35 -5 6 -79 76 -163 156 -84 80 -179 170 -210 200 -31 30 -116 111
-189 180 -72 69 -167 159 -210 200 -116 111 -378 359 -425 404 -23 21 -114
108 -203 193 -188 180 -213 203 -217 203 -6 0 -47 -38 -218 -201 -94 -90 -183
-175 -198 -189 -15 -14 -109 -104 -210 -200 -101 -96 -195 -186 -210 -200
-102 -96 -410 -390 -633 -603 l-165 -157 76 -73 c121 -116 131 -124 302 -287
90 -85 194 -184 232 -220 37 -36 127 -121 200 -190 72 -69 183 -175 245 -235
62 -61 113 -109 113 -107 0 1 42 -37 93 -86 50 -49 139 -134 196 -188 57 -54
119 -114 138 -132 18 -17 37 -32 41 -32 4 0 15 -8 23 -17 9 -10 83 -82 165
-160 214 -203 241 -229 417 -397 88 -83 176 -167 196 -186 105 -99 371 -352
421 -400 205 -196 385 -367 399 -377 14 -9 27 -2 78 45 67 63 303 287 392 372
31 30 130 125 220 210 90 85 187 178 216 205 29 28 119 113 200 190 81 77 173
165 204 195 31 30 119 113 194 185 78 73 135 135 133 142 -3 7 -2 12 3 10 9
-2 67 49 222 197 58 55 181 173 274 261 92 88 189 180 215 205 40 39 214 203
395 375 51 48 285 272 450 429 l80 76 -100 96 c-55 52 -160 152 -234 222 -170
161 -177 167 -362 344 -239 228 -276 263 -440 418 -84 80 -205 195 -268 256
-181 173 -226 214 -231 214 -3 -1 -50 -44 -105 -97z"/>
</g>
</svg>
